<svg xmlns="http://www.w3.org/2000/svg" enable-background="new 0 0 237.441 195.457" viewBox="0 0 237.441 195.457" id="man-using-laptop">
  <path d="M118.601,11.528l-3.202-2.919l-3.168,3.475c0.693,1.47,1.247,3.018,1.646,4.627L118.601,11.528z"></path>
  <polygon points="122.028 4.553 116.364 7.55 119.566 10.469"></polygon>
  <path d="M41.623,87.403l8.176-39.192c0.169-0.807,0.435-1.593,0.79-2.338c0.21-0.439,1.354-2.754,3.224-5.145
		c4.651-5.943,9.695-7.19,13.108-7.19c0.041,0,0.079,0.008,0.12,0.009c-0.365-0.757-0.691-1.536-0.979-2.333
		c-0.865-0.341-1.802-0.53-2.78-0.53H21.119c-4.669,0-8.233,4.171-7.506,8.782l8.754,55.522h20.638
		C41.594,92.754,41.071,90.048,41.623,87.403z"></path>
  <path d="M89.593 47.738c-8.927 0-16.773-4.704-21.202-11.76-.477-.089-.967-.141-1.47-.141-2.901 0-7.216 1.094-11.297 6.308-1.72 2.198-2.768 4.317-2.96 4.72-.277.578-.482 1.188-.614 1.815l-8.177 39.193c-.534 2.562.226 5.216 2.02 7.114h21.771c3.192-.473 6.7-.961 10.301-1.406 18.532-2.289 25.756-1.769 28.302-1.324.379-1.728 1.917-3.026 3.757-3.026h10.23c.457-1.541.462-3.233-.102-4.868-.866-2.51-3.12-5.825-8.944-7.36-2.394-.631-5.376-.983-9.116-1.076-5.53-.137-12.893.301-21.887 1.302-6.594.734-13.068 1.656-18.303 2.468l3.944-18.903 2.295.259L64.83 76.927c5.35-.794 10.423-1.46 15.12-1.983 7.987-.89 14.744-1.341 20.081-1.341.732 0 1.438.009 2.117.025 3.92.097 7.075.474 9.646 1.151.302.08.586.169.872.256l1.682-10.576c.507 1.255 1.012 2.611 1.51 4.087 1.136 3.37 2.029 6.715 2.702 9.583 2.069 1.755 3.176 3.771 3.766 5.483.647 1.876.706 3.811.295 5.618h20.327l2.34-12.227c-3.798-.04-7.539.006-10.586.073-.796-3.705-1.981-8.488-3.627-13.409-2.121-6.341-4.593-11.653-7.347-15.789-3.85-5.783-8.391-9.486-13.509-11.023C105.706 43.422 98.145 47.738 89.593 47.738zM66.654 168.979l-29.25 9v3.683c-1.874.924-3.167 2.849-3.167 5.08 0 3.13 2.537 5.667 5.667 5.667 3.13 0 5.667-2.537 5.667-5.667 0-2.226-1.287-4.147-3.154-5.073l24.237-7.458v7.452c-1.874.924-3.167 2.849-3.167 5.08 0 3.13 2.537 5.667 5.667 5.667 3.13 0 5.667-2.537 5.667-5.667 0-2.231-1.292-4.155-3.167-5.08v-7.451l24.237 7.458c-1.867.927-3.154 2.847-3.154 5.073 0 3.13 2.537 5.667 5.667 5.667 3.13 0 5.667-2.537 5.667-5.667 0-2.231-1.292-4.155-3.167-5.08v-3.683l-29.25-9v-2.32h-5V168.979zM114.586 186.4c1.476 5.461 6.419 9.057 11.817 9.057 1.058 0 2.134-.138 3.204-.427 6.531-1.766 10.395-8.491 8.629-15.022l-3.607-13.349H109.25L114.586 186.4zM145.707 186.4c1.477 5.461 6.42 9.057 11.818 9.057 1.058 0 2.134-.138 3.204-.427 6.531-1.766 10.395-8.491 8.63-15.022l-3.608-13.349h-25.379L145.707 186.4zM84.134 17.653c3.344-.298 6.373 1.58 7.71 4.459l4.165-.371c.808-3.07 3.457-5.453 6.801-5.75 3.344-.298 6.373 1.58 7.71 4.459l1.662-.148C110.976 8.891 101.325 0 89.593 0 77.046 0 66.874 10.171 66.874 22.719c0 .542.026 1.077.063 1.609l10.396-.925C78.141 20.334 80.79 17.951 84.134 17.653z"></path>
  <path d="M89.593,45.438c12.549,0,22.719-10.171,22.719-22.719c0-0.014-0.001-0.029-0.001-0.043l-1.129,0.1
		c0.01,0.083,0.027,0.164,0.035,0.248c0.379,4.263-2.769,8.027-7.033,8.406s-8.027-2.769-8.406-7.033
		c-0.007-0.084-0.005-0.166-0.01-0.25l-3.262,0.29c0.01,0.083,0.027,0.164,0.035,0.248c0.379,4.263-2.769,8.027-7.033,8.406
		s-8.027-2.769-8.406-7.033c-0.008-0.084-0.005-0.166-0.01-0.25l-9.866,0.878C69.104,37.342,78.4,45.438,89.593,45.438z"></path>
  <polygon points="0 97.987 0 102.987 7.333 102.987 7.333 111.82 12.75 111.82 12.75 192.115 19.25 192.115 19.25 163.659 218.191 163.659 218.191 192.115 224.691 192.115 224.691 111.82 230.108 111.82 230.108 102.987 237.441 102.987 237.441 97.987"></polygon>
  <path d="M102.977 17.859c-3.231.288-5.619 3.141-5.331 6.373.288 3.232 3.141 5.619 6.373 5.331 3.231-.288 5.619-3.14 5.331-6.373C109.062 19.959 106.208 17.572 102.977 17.859zM84.301 19.521c-3.231.287-5.619 3.141-5.331 6.372.288 3.232 3.141 5.619 6.372 5.331 3.231-.287 5.619-3.14 5.331-6.372C90.386 21.62 87.532 19.233 84.301 19.521zM110.023 94.632h36.533 44.39 12.941c.912 0 1.696-.648 1.868-1.544l8.674-45.327c.224-1.172-.674-2.259-1.868-2.259H155.23c-.912 0-1.696.648-1.868 1.544l-8.513 44.485h-34.826c-.853 0-1.551.698-1.551 1.551C108.473 93.934 109.171 94.632 110.023 94.632zM179.945 61.052c.234-1.33 1.502-2.407 2.832-2.407s2.217 1.078 1.983 2.407c-.234 1.329-1.502 2.407-2.832 2.407C180.598 63.459 179.71 62.381 179.945 61.052z"></path>
</svg>
